<svg version="1.1" viewBox="0.0 0.0 960.0 720.0" fill="none" stroke="none" stroke-linecap="square" stroke-miterlimit="10" xmlns:xlink="http://www.w3.org/1999/xlink" xmlns="http://www.w3.org/2000/svg"><clipPath id="p.0"><path d="m0 0l960.0 0l0 720.0l-960.0 0l0 -720.0z" clip-rule="nonzero"/></clipPath><g clip-path="url(#p.0)"><path fill="#000000" fill-opacity="0.0" d="m0 0l960.0 0l0 720.0l-960.0 0z" fill-rule="evenodd"/><path fill="#000000" d="m234.42134 468.64938l0 0c-8.848328 -8.045258 -9.499817 -21.7406 -1.4551239 -30.589447l291.30856 -320.42795c3.8631592 -4.2493668 9.2561035 -6.7899323 14.992371 -7.0627975c5.736267 -0.27287292 11.346008 1.7443008 15.595154 5.607773l64.08331 58.267136c8.848328 8.045242 9.499817 21.740616 1.4551392 30.589462l-291.30856 320.42792c-8.044678 8.848877 -21.739166 9.500305 -30.587494 1.4550171z" fill-rule="evenodd"/><path stroke="#000000" stroke-width="1.0" stroke-linejoin="round" stroke-linecap="butt" d="m234.42134 468.64938l0 0c-8.848328 -8.045258 -9.499817 -21.7406 -1.4551239 -30.589447l291.30856 -320.42795c3.8631592 -4.2493668 9.2561035 -6.7899323 14.992371 -7.0627975c5.736267 -0.27287292 11.346008 1.7443008 15.595154 5.607773l64.08331 58.267136c8.848328 8.045242 9.499817 21.740616 1.4551392 30.589462l-291.30856 320.42792c-8.044678 8.848877 -21.739166 9.500305 -30.587494 1.4550171z" fill-rule="evenodd"/><path fill="#000000" d="m457.68765 399.36795l0 0c0 -13.829132 11.210754 -25.039856 25.039886 -25.039856l108.25098 0c6.640991 0 13.009949 2.6381226 17.705872 7.3339844c4.695862 4.6958923 7.3339844 11.06488 7.3339844 17.705872l0 100.156494c0 13.829132 -11.210754 25.039886 -25.039856 25.039886l-108.25098 0c-13.829132 0 -25.039886 -11.210754 -25.039886 -25.039886z" fill-rule="evenodd"/><path stroke="#000000" stroke-width="1.0" stroke-linejoin="round" stroke-linecap="butt" d="m457.68765 399.36795l0 0c0 -13.829132 11.210754 -25.039856 25.039886 -25.039856l108.25098 0c6.640991 0 13.009949 2.6381226 17.705872 7.3339844c4.695862 4.6958923 7.3339844 11.06488 7.3339844 17.705872l0 100.156494c0 13.829132 -11.210754 25.039886 -25.039856 25.039886l-108.25098 0c-13.829132 0 -25.039886 -11.210754 -25.039886 -25.039886z" fill-rule="evenodd"/></g></svg>